<svg xmlns="http://www.w3.org/2000/svg" width="24" height="24" viewBox="0 0 24 24"><g transform="translate(0 -2.288)"><path d="M117.8,99.512V97.475a7.072,7.072,0,1,0-14.142,0v2.038a7.072,7.072,0,1,0,14.142,0Z" transform="translate(-98.745 -83.837)" fill="#0097e0"/><path d="M22.8,10.792a11.2,11.2,0,0,0-21.753.051A1.74,1.74,0,0,0,0,12.44v4.347a1.723,1.723,0,1,0,3.446,0V12.44A1.734,1.734,0,0,0,2.5,10.9,9.937,9.937,0,0,1,4.99,6.629a9.739,9.739,0,0,1,13.877,0,9.935,9.935,0,0,1,2.508,4.336,1.734,1.734,0,0,0-.821,1.475v4.347a1.733,1.733,0,0,0,.976,1.56,11.076,11.076,0,0,1-.951,2.427,8.168,8.168,0,0,1-1.285,1.8,2.016,2.016,0,0,0-1.224-.42A2.084,2.084,0,1,0,19.982,23.5l.1-.1a11.027,11.027,0,0,0,2.575-4.924A1.734,1.734,0,0,0,24,16.787V12.44A1.731,1.731,0,0,0,22.8,10.792Z" fill="#0097e0"/></g></svg>