<svg xmlns="http://www.w3.org/2000/svg" xmlns:xlink="http://www.w3.org/1999/xlink" width="121" height="39" viewBox="0 0 121 39"><defs><clipPath id="a"><rect width="121" height="39" transform="translate(0 0)" fill="none"/></clipPath></defs><g transform="translate(0 0)" clip-path="url(#a)"><path d="M.071,64.2a3.935,3.935,0,0,0,.142.775l2,6.212c.719,2.164,3.153,3.669,5.957,3.669H112.3c2.782,0,5.212-1.507,5.935-3.669l2.014-6.212a3.914,3.914,0,0,0,.143-.775Z" transform="translate(-0.04 -36.474)" fill="#0097e0"/><path d="M120.385,27.3c0-.029,0-.062,0-.089V2.288A2.3,2.3,0,0,0,118.082,0H2.306A2.3,2.3,0,0,0,0,2.288V27.207c0,.026,0,.06,0,.089Z" transform="translate(0 0)" fill="#0097e0"/><path d="M23.941,72.952h98.833l.518-2.5.111-.5H123.4l.007-.038H40.362l-17.014-.007v.007H23.31Z" transform="translate(-13.165 -39.715)" fill="#fff"/><path d="M74.646,79.3H25.231l.538,1.46h97.347l.44-1.195.1-.244h-.007l.007-.022Z" transform="translate(-14.25 -45.049)" fill="#fff"/><path d="M263.479,55.488a.548.548,0,0,1-.447-.259s-.169-.385.231-.463a.789.789,0,0,0,.482-.284s.161-.373-.3-.5-.427-.349-.427-.349-.075-.289.351-.408.4-.388.4-.388H262.9a1.975,1.975,0,0,0-1.075.728.064.064,0,0,1-.05.024h-.746a.694.694,0,0,0-.127.011,2.092,2.092,0,0,0-1.072.745,2.217,2.217,0,0,0,1,.72.444.444,0,0,0,.138.022h.8a.074.074,0,0,1,.057.027,1.7,1.7,0,0,0,1.09.72h.86a.411.411,0,0,0-.293-.349m-1.677-.43c.031-.269-.42-.366-.42-.366-.394-.127-.323-.36-.323-.36-.026-.264.333-.358.333-.358.41-.079.42-.358.42-.358.634.726,1.09.716,1.09.716a2.122,2.122,0,0,0-1.1.726" transform="translate(-146.744 -30.019)" fill="#fff"/><path d="M22.2,56.032l-.282-.842-.212.842h-.437l.357-1.417h.7l.28.835.211-.835h.437L22.9,56.032Zm-1.875,0,.356-1.417h.632l-.357,1.417Zm-.908,0-.322-.489-.123.489h-.6l.356-1.417h.6l-.118.463.541-.463H20.4l-.793.675.541.742Zm-1.975,0,.357-1.417h.631l-.357,1.417Zm-3.037,0h-.785l.356-1.417h.953s.652.019.652.6a.841.841,0,0,1-.867.817Zm-.1-.312h.224c.4,0,.437-.46.437-.46.023-.285-.188-.3-.26-.3h-.2Zm2.33.313-.043-.236h-.579l-.134.236h-.418l.811-1.417h.718l.262,1.417Zm-.418-.6h.309l-.076-.409Z" transform="translate(-7.692 -31.028)" fill="#fff"/><path d="M9.363,53.316H8.1v1.153Z" transform="translate(-4.574 -30.29)" fill="#fff"/><path d="M9.48,53.316h0L8.1,54.61v1.211l2.736-2.5Z" transform="translate(-4.575 -30.29)" fill="#fff"/></g></svg>