<svg xmlns="http://www.w3.org/2000/svg" width="100" height="77.564" viewBox="0 0 100 77.564"><g transform="translate(0 -57.855)" opacity="0.3"><path d="M84.182,360.629,97.31,368.21l1.485-2.573-13.128-7.577Z" transform="translate(-67.746 -241.447)" fill="#0097e0"/><rect width="2.97" height="15.158" transform="translate(41.899 102.739)" fill="#0097e0"/><path d="M84.182,249.462l1.485,2.57,13.128-7.579-1.485-2.57Z" transform="translate(-67.746 -148.009)" fill="#0097e0"/><path d="M286.082,360.629l13.128,7.581,1.485-2.573-13.129-7.577Z" transform="translate(-230.227 -241.447)" fill="#0097e0"/><rect width="2.97" height="15.158" transform="translate(81.296 102.739)" fill="#0097e0"/><path d="M286.082,249.462l1.484,2.57,13.129-7.579-1.485-2.57Z" transform="translate(-230.227 -148.009)" fill="#0097e0"/><path d="M91.41,180.689V157.3L71.2,145.607V131.878H68.235v13.729L50,156.16,30.283,144.752,10.072,156.446l-8.59-4.972L0,154.045l8.59,4.971v21.673L0,185.659l1.482,2.573,8.589-4.971,20.212,11.692L50,183.547l19.717,11.407,20.212-11.692,8.589,4.971L100,185.659Zm-43.386-.573L30.283,190.38,12.542,180.116V159.587l17.74-10.265,17.742,10.265Zm39.434,0L69.717,190.38,51.976,180.116V159.587l17.741-10.265,17.741,10.265Z" transform="translate(0 -59.535)" fill="#0097e0"/><path d="M1.08,0H4.428V-5.058H9.27V-7.434H4.428v-2.754H9.486v-2.376H1.08Z" transform="translate(65.058 70.419)" fill="#0097e0"/></g></svg>