<svg xmlns="http://www.w3.org/2000/svg" width="60" height="94" viewBox="0 0 60 94"><g transform="translate(-412.431 -2253.37)"><g transform="translate(412.431 2253.37)"><path d="M1949.869,14148.855v86.817l47.507,3.763v-89.062Z" transform="translate(-1949.62 -14145.741)" fill="#0097e0"/><path d="M2033.523,14149.688l12.764-2.884v87.913l-12.764,4.136Z" transform="translate(-1986.546 -14144.854)" fill="#0097e0"/><path d="M1969.175,14143.37l-19.59,3.055,47.084,1.705,12.828-3.008Z" transform="translate(-1949.498 -14143.37)" fill="#0097e0"/><path d="M2033.591,14241.027h-.568v-88.881h.568Z" transform="translate(-1986.165 -14147.162)" fill="#fff"/><path d="M1996.466,14149.912h-.039l-47-1.893.022-.568,46.957,1.893,12.329-3.023.132.551Z" transform="translate(-1949.431 -14144.646)" fill="#fff"/></g><path d="M1.792.093,1.282.066.735,1.477H.73L.474.025,0,0,.412,1.923l.582.031ZM2.4.485,2.629.5a.388.388,0,0,1,.1.018A.215.215,0,0,1,2.8.553a.181.181,0,0,1,.047.063.271.271,0,0,1,.022.089.2.2,0,0,1-.018.112.162.162,0,0,1-.071.069.335.335,0,0,1-.112.033.793.793,0,0,1-.143,0L2.362.914ZM1.783,2l.474.025.071-.749.051,0a.8.8,0,0,1,.127.014.154.154,0,0,1,.077.038.224.224,0,0,1,.05.083c.015.037.029.086.046.149l.137.493.472.025-.183-.6c-.009-.031-.02-.067-.034-.1a.778.778,0,0,0-.049-.11.353.353,0,0,0-.068-.09.174.174,0,0,0-.092-.046V1.123a.9.9,0,0,0,.191-.034.461.461,0,0,0,.156-.079.32.32,0,0,0,.1-.139A.474.474,0,0,0,3.332.659a.564.564,0,0,0-.095-.28.472.472,0,0,0-.19-.154A.907.907,0,0,0,2.8.156C2.715.142,2.626.137,2.541.132L1.975.1ZM5.34.277,4.828.25,4.277,1.664H4.271L4.016.208,3.54.183l.411,1.927.585.031Z" transform="translate(415.975 2262.127)" fill="#fff"/><path d="M2015.562,14188.875l-14.2-1.121v.623h-.568v-1.238l.306.025,14.5,1.145Z" transform="translate(-1558.764 -11906.326)" fill="#fff"/><path d="M2015.562,14188.875l-14.2-1.121v.623h-.568v-1.238l.306.025,14.5,1.145Z" transform="translate(-1558.764 -11892.26)" fill="#fff"/><path d="M2015.562,14188.875l-14.2-1.121v.623h-.568v-1.238l.306.025,14.5,1.145Z" transform="translate(-1558.764 -11878.192)" fill="#fff"/><path d="M2015.562,14188.875l-14.2-1.121v.623h-.568v-1.238l.306.025,14.5,1.145Z" transform="translate(-1558.764 -11864.126)" fill="#fff"/><path d="M2015.562,14188.875l-14.2-1.121v.623h-.568v-1.238l.306.025,14.5,1.145Z" transform="translate(-1558.764 -11897.887)" fill="#fff"/><path d="M2015.562,14188.875l-14.2-1.121v.623h-.568v-1.238l.306.025,14.5,1.145Z" transform="translate(-1558.764 -11883.82)" fill="#fff"/><path d="M2015.562,14188.875l-14.2-1.121v.623h-.568v-1.238l.306.025,14.5,1.145Z" transform="translate(-1558.764 -11869.751)" fill="#fff"/><path d="M2015.562,14188.875l-14.2-1.121v.623h-.568v-1.238l.306.025,14.5,1.145Z" transform="translate(-1558.764 -11855.816)" fill="#fff"/><path d="M2015.562,14188.875l-14.2-1.121v.623h-.568v-1.238l.306.025,14.5,1.145Z" transform="translate(-1558.764 -11903.513)" fill="#fff"/><path d="M2015.562,14188.875l-14.2-1.121v.623h-.568v-1.238l.306.025,14.5,1.145Z" transform="translate(-1558.764 -11889.446)" fill="#fff"/><path d="M2015.562,14188.875l-14.2-1.121v.623h-.568v-1.238l.306.025,14.5,1.145Z" transform="translate(-1558.764 -11875.379)" fill="#fff"/><path d="M2015.562,14188.875l-14.2-1.121v.623h-.568v-1.238l.306.025,14.5,1.145Z" transform="translate(-1558.764 -11861.312)" fill="#fff"/><path d="M2015.562,14188.875l-14.2-1.121v.623h-.568v-1.238l.306.025,14.5,1.145Z" transform="translate(-1558.764 -11895.073)" fill="#fff"/><path d="M2015.562,14188.875l-14.2-1.121v.623h-.568v-1.238l.306.025,14.5,1.145Z" transform="translate(-1558.764 -11881.007)" fill="#fff"/><path d="M2015.562,14188.875l-14.2-1.121v.623h-.568v-1.238l.306.025,14.5,1.145Z" transform="translate(-1558.764 -11866.938)" fill="#fff"/><path d="M2015.562,14188.875l-14.2-1.121v.623h-.568v-1.238l.306.025,14.5,1.145Z" transform="translate(-1558.764 -11852.977)" fill="#fff"/><path d="M2015.562,14188.875l-14.2-1.121v.623h-.568v-1.238l.306.025,14.5,1.145Z" transform="translate(-1558.764 -11900.699)" fill="#fff"/><path d="M2015.562,14188.875l-14.2-1.121v.623h-.568v-1.238l.306.025,14.5,1.145Z" transform="translate(-1558.764 -11886.633)" fill="#fff"/><path d="M2015.562,14188.875l-14.2-1.121v.623h-.568v-1.238l.306.025,14.5,1.145Z" transform="translate(-1558.764 -11872.565)" fill="#fff"/><path d="M2015.562,14188.875l-14.2-1.121v.623h-.568v-1.238l.306.025,14.5,1.145Z" transform="translate(-1558.764 -11858.655)" fill="#fff"/><path d="M2151.028,14153.867l-.141-.549,9.5-2.445.142.549Z" transform="translate(-1689.568 -11871.34)" fill="#fff"/><path d="M2151.028,14153.867l-.141-.549,9.5-2.445.142.549Z" transform="translate(-1689.568 -11844.334)" fill="#fff"/><path d="M2151.028,14153.867l-.141-.549,9.5-2.445.142.549Z" transform="translate(-1689.568 -11862.338)" fill="#fff"/><path d="M2151.028,14153.867l-.141-.549,9.5-2.445.142.549Z" transform="translate(-1689.568 -11835.332)" fill="#fff"/><path d="M2151.028,14153.867l-.141-.549,9.5-2.445.142.549Z" transform="translate(-1689.568 -11853.336)" fill="#fff"/><path d="M2151.028,14153.867l-.141-.549,9.5-2.445.142.549Z" transform="translate(-1689.568 -11826.331)" fill="#fff"/><path d="M2151.028,14153.867l-.141-.549,9.5-2.445.142.549Z" transform="translate(-1689.568 -11866.84)" fill="#fff"/><path d="M2151.028,14153.867l-.141-.549,9.5-2.445.142.549Z" transform="translate(-1689.568 -11839.833)" fill="#fff"/><path d="M2151.028,14153.867l-.141-.549,9.5-2.445.142.549Z" transform="translate(-1689.568 -11857.837)" fill="#fff"/><path d="M2151.028,14153.867l-.141-.549,9.5-2.445.142.549Z" transform="translate(-1689.568 -11830.83)" fill="#fff"/><path d="M2151.028,14153.867l-.141-.549,9.5-2.445.142.549Z" transform="translate(-1689.568 -11848.834)" fill="#fff"/><path d="M2151.028,14153.867l-.141-.549,9.5-2.445.142.549Z" transform="translate(-1689.568 -11821.973)" fill="#fff"/><path d="M2151.028,14153.867l-.141-.549,9.5-2.445.142.549Z" transform="translate(-1689.568 -11869.089)" fill="#fff"/><path d="M2151.028,14153.867l-.141-.549,9.5-2.445.142.549Z" transform="translate(-1689.568 -11842.084)" fill="#fff"/><path d="M2151.028,14153.867l-.141-.549,9.5-2.445.142.549Z" transform="translate(-1689.568 -11860.087)" fill="#fff"/><path d="M2151.028,14153.867l-.141-.549,9.5-2.445.142.549Z" transform="translate(-1689.568 -11833.082)" fill="#fff"/><path d="M2151.028,14153.867l-.141-.549,9.5-2.445.142.549Z" transform="translate(-1689.568 -11851.086)" fill="#fff"/><path d="M2151.028,14153.867l-.141-.549,9.5-2.445.142.549Z" transform="translate(-1689.568 -11824.079)" fill="#fff"/><path d="M2151.028,14153.867l-.141-.549,9.5-2.445.142.549Z" transform="translate(-1689.568 -11864.589)" fill="#fff"/><path d="M2151.028,14153.867l-.141-.549,9.5-2.445.142.549Z" transform="translate(-1689.568 -11837.583)" fill="#fff"/><path d="M2151.028,14153.867l-.141-.549,9.5-2.445.142.549Z" transform="translate(-1689.568 -11855.588)" fill="#fff"/><path d="M2151.028,14153.867l-.141-.549,9.5-2.445.142.549Z" transform="translate(-1689.568 -11828.582)" fill="#fff"/><path d="M2151.028,14153.867l-.141-.549,9.5-2.445.142.549Z" transform="translate(-1689.568 -11846.586)" fill="#fff"/><path d="M2151.028,14153.867l-.141-.549,9.5-2.445.142.549Z" transform="translate(-1689.568 -11819.701)" fill="#fff"/></g></svg>