<svg xmlns="http://www.w3.org/2000/svg" xmlns:xlink="http://www.w3.org/1999/xlink" width="84" height="91" viewBox="0 0 84 91"><defs><clipPath id="a"><rect width="84" height="91" fill="none"/></clipPath></defs><g opacity="0.3" clip-path="url(#a)"><path d="M30.628,67.793,0,77.036V80l6.448,1.205.207.039L7,109.264a.429.429,0,0,0-.152.044l-5.14,2.6a.154.154,0,0,0,.019.283l5.835,2.038a.425.425,0,0,0,.309-.011l3.2-1.389L55.134,125.62,80.308,107.6V78.626l2.817-1.434V74.852Z" transform="translate(0 -38.744)" fill="#0097e0"/><path d="M59.627,41.166,49.755,45.4,13.772,38.895l-.119-5.266h-.622a.48.48,0,0,1-.473-.48V26.34a.477.477,0,0,1,.473-.48h.443l-.243-10.717C13.014,3.269,18.107,1.251,18.107,1.251L24.176,0,59.358,2.507Z" transform="translate(-7.21)" fill="#0097e0"/><path d="M15.456,95.893l50.228,9.247L89.155,93.114" transform="translate(-8.874 -53.215)" fill="none" stroke="#fff" stroke-miterlimit="10" stroke-width="1"/><path d="M129.457,139.481l.222,2.439,3.531,1.4L158.4,124.6V92.813l-2.909-.754-1.094.956v28.448Z" transform="translate(-74.323 -52.612)" fill="#0097e0"/><path d="M129.457,139.655l25.174-18.024V92.351" transform="translate(-74.323 -52.779)" fill="none" stroke="#fff" stroke-miterlimit="10" stroke-width="1"/><path d="M192.734,102.988a.829.829,0,1,1-.81-1.006.924.924,0,0,1,.81,1.006" transform="translate(-109.721 -58.283)" fill="#fff"/><path d="M193.289,148.747a.829.829,0,1,1-.81-1.006.924.924,0,0,1,.81,1.006" transform="translate(-110.04 -84.435)" fill="#fff"/><line y2="35.304" transform="translate(55.134 51.565)" fill="none" stroke="#fff" stroke-miterlimit="10" stroke-width="1"/><path d="M60.769,89.069l-9.313,4.347L14.775,86.755l-.01-2.492" transform="translate(-8.477 -48.157)" fill="none" stroke="#fff" stroke-miterlimit="10" stroke-width="1"/><path d="M141.638,26.982V21.247l-7.044-.418V19.18l-4.916-1.1V16.565a4.06,4.06,0,0,0-3.745,0v1.562l-1.671.652a57.781,57.781,0,0,0-5.153-5.426L117.285,15.5a28.925,28.925,0,0,1,4.339,4.306l-2.139.834.116,28.184h14.992V26.563l3.318.2c-.9,7.1-.093,19.036-.093,19.036l2.274.307a75.365,75.365,0,0,1,.055-19.211Z" transform="translate(-67.335 -7.631)" fill="#0097e0"/><path d="M177.534,38.093l-2.006-.22V33.7l2.006.179Z" transform="translate(-100.773 -19.262)" fill="#0097e0"/><path d="M110.086,5.845s-8.877-.052-9.014,11.08L100.917,48.6l9.44-4.092Z" transform="translate(-57.938 -3.34)" fill="#0097e0"/><path d="M110.086,5.845s-8.877-.052-9.014,11.08L100.917,48.6l9.44-4.092Z" transform="translate(-57.938 -3.34)" fill="none" stroke="#fff" stroke-miterlimit="10" stroke-width="1"/><line y1="7.29" x2="15.668" transform="translate(52.352 33.882)" fill="none" stroke="#fff" stroke-miterlimit="10" stroke-width="1"/><path d="M22.63,104.313V113.6l20,4.219v-9.845Z" transform="translate(-12.992 -59.615)" fill="#fff"/><path d="M91.3,116.644v8.222l10.86,2.272v-8.546Z" transform="translate(-52.418 -66.662)" fill="#fff"/><path d="M22.63,127.63v3.685l11.389,2.31v-3.538Z" transform="translate(-12.992 -72.941)" fill="#fff"/><path d="M75.864,114.442V131.93a.524.524,0,0,0,.363.5,5.886,5.886,0,0,0,3.743.063.652.652,0,0,0,.4-.607V115.122Z" transform="translate(-43.555 -65.404)" fill="#fff"/><path d="M22.858,69.523l5.385.78a.31.31,0,0,0,.329-.426l-2.269-5.5a.308.308,0,0,0-.542-.053l-3.116,4.725a.311.311,0,0,0,.213.479" transform="translate(-12.971 -36.68)" fill="#fff"/><path d="M181.931,39.073l-.78-.073V37.968l.78.044Z" transform="translate(-104.001 -21.699)" fill="#0097e0"/></g></svg>