<svg xmlns="http://www.w3.org/2000/svg" viewBox="0 0 446.94 94.53"><defs><style>.cls-1{fill:#2994d2;}.cls-2{fill:#59c2ef;}</style></defs><path class="cls-1" d="M324.65,252.55h-27.1l-13.48,53h34.06c6.93,0,33.4,2.58,37.94-26.69,4.43-28.41-27.87-26.32-31.42-26.32m8.9,26.93c-2,11-10.09,14.39-13.46,14.39H310l7.11-28.33h7.94C328.62,265.54,335.54,268.37,333.55,279.48Z" transform="translate(-195.24 -231.71)"/><path class="cls-1" d="M382.2,252.55l-29.87,53h15.43L372.6,297h21.52l1.56,8.53h22.76l-10.11-53H382.2m-2,31.07,8.65-15.25,2.81,15.25Z" transform="translate(-195.24 -231.71)"/><polyline class="cls-1" points="244.18 20.84 230.14 73.85 252.84 73.85 266.9 20.84 244.18 20.84"/><polyline class="cls-1" points="339.89 20.84 316.18 20.84 297.49 37.95 301.93 20.65 278.59 20.65 264.93 73.85 288.27 73.85 292.66 56.73 305.3 73.85 331.23 73.85 311.41 46.97 339.89 20.84"/><polyline class="cls-1" points="351.77 20.84 337.72 73.85 360.48 73.85 374.52 20.84 351.77 20.84"/><polyline class="cls-1" points="431.1 20.84 422.63 53.06 411.96 20.84 387 20.84 372.96 73.85 388.79 73.85 397.2 42.1 407.72 73.85 432.88 73.85 446.94 20.84 431.1 20.84"/><polyline class="cls-2" points="0 0 102.09 0 0 94.53 0 0"/><polyline points="0 0 51.17 0 0 47.39 0 0"/></svg>
