<?xml version="1.0" encoding="UTF-8"?>
<svg xmlns="http://www.w3.org/2000/svg" xmlns:xlink="http://www.w3.org/1999/xlink" viewBox="0 0 512 512">
  <defs>
    <style>
      .cls-1 {
        fill: #000;
      }

      .cls-1, .cls-2, .cls-3, .cls-4, .cls-5, .cls-6 {
        stroke-width: 0px;
      }

      .cls-2 {
        fill: #009d60;
      }

      .cls-3 {
        fill: none;
      }

      .cls-4 {
        fill: #f67e0b;
      }

      .cls-7 {
        clip-path: url(#clippath);
      }

      .cls-5 {
        fill: url(#_名称未設定グラデーション_27);
      }

      .cls-6 {
        fill: #f0f0f0;
      }
    </style>
    <clipPath id="clippath">
      <path class="cls-3" d="M745.81,0h932.38c18.66,0,33.81,15.15,33.81,33.81v522.38c0,18.66-15.15,33.81-33.81,33.81h-932.38c-18.66,0-33.81-15.15-33.81-33.81V33.81c0-18.66,15.15-33.81,33.81-33.81Z"/>
    </clipPath>
    <radialGradient id="_名称未設定グラデーション_27" data-name="名称未設定グラデーション 27" cx="717.67" cy="694.93" fx="717.67" fy="694.93" r="433.87" gradientUnits="userSpaceOnUse">
      <stop offset=".41" stop-color="#c0dcff" stop-opacity="0"/>
      <stop offset=".85" stop-color="#daebff"/>
    </radialGradient>
  </defs>
  <g id="_背景" data-name="背景">
    <g class="cls-7">
      <path class="cls-5" d="M972.07,441.74c-7.48,0-14.21,3.14-18.99,8.15-5.5-13.1-18.44-22.29-33.54-22.29-5.17,0-10.09,1.1-14.54,3.05-6.36-19.36-24.57-33.35-46.06-33.35-1.35,0-2.69.07-4.02.18-7.11-27.97-32.46-48.66-62.65-48.66-35.7,0-64.65,28.94-64.65,64.65,0,1.26.04,2.5.12,3.74-3.89-1.11-7.99-1.72-12.24-1.72-7.6,0-14.76,1.91-21.02,5.28-9.59-17.59-28.25-29.52-49.69-29.52-.05,0-.11,0-.16,0-11.19-17.03-30.46-28.29-52.36-28.29-28.3,0-52.21,18.78-59.97,44.55-4.69-1.37-9.65-2.12-14.78-2.12-29.01,0-52.53,23.52-52.53,52.53s23.52,52.53,52.53,52.53c3.79,0,7.49-.41,11.06-1.18,4.1,19.14,21.1,33.5,41.47,33.5,7.05,0,13.68-1.75,19.53-4.79,10.56,19.68,31.32,33.07,55.22,33.07s46.07-14.32,56.26-35.11c7.77,5.56,17.29,8.84,27.58,8.84,19.56,0,36.36-11.84,43.63-28.73,9.15,10.18,22.59,16.61,37.59,16.61,14.11,0,26.85-5.7,35.93-14.85,6.88,12.47,20.14,20.92,35.39,20.92,16.09,0,29.94-9.43,36.44-23.04,5.34,3.07,11.51,4.86,18.11,4.86,16.6,0,30.57-11.14,34.93-26.34.48.03.95.07,1.43.07,14.5,0,26.26-11.76,26.26-26.26s-11.76-26.26-26.26-26.26Z"/>
    </g>
  </g>
  <g id="_イメージ" data-name="イメージ">
    <g>
      <path class="cls-1" d="M390.06,123.49c83.09,83.15,90.33,211.18,16.15,285.36-74.24,74.24-202.27,67-285.42-16.15C37.7,309.61,30.4,181.58,104.64,107.34c74.25-74.24,202.27-67,285.42,16.15Z"/>
      <g>
        <path class="cls-2" d="M512,256c0-111.25-71.31-206.12-170.67-241.35v482.69c99.35-35.23,170.67-130.1,170.67-241.35Z"/>
        <path class="cls-6" d="M256,512c29.94,0,58.67-5.17,85.33-14.65V14.65C314.67,5.17,285.94,0,256,0s-58.61,5.17-85.33,14.65v482.69c26.72,9.48,55.45,14.65,85.33,14.65Z"/>
        <path class="cls-4" d="M170.67,14.65C71.37,49.88,0,144.75,0,256s71.37,206.12,170.67,241.35V14.65Z"/>
      </g>
    </g>
  </g>
</svg>