<?xml version="1.0" encoding="UTF-8"?>
<svg id="a" data-name="Layer 1" xmlns="http://www.w3.org/2000/svg" viewBox="0 0 512 512">
  <defs>
    <style>
      .b {
        fill: #dd2911;
      }

      .c {
        fill: #fedd19;
      }
    </style>
  </defs>
  <path d="m390.065,123.434c83.107,83.112,90.344,211.026,16.134,285.236-74.147,74.21-202.123,66.972-285.236-16.14C37.851,309.475,30.614,181.503,104.824,107.294c74.21-74.21,202.181-66.972,285.241,16.14Z"/>
  <g>
    <circle class="b" cx="256" cy="256" r="256"/>
    <g>
      <polygon class="c" points="146.409 92.073 161.228 137.563 209.016 137.563 170.36 165.65 185.122 211.141 146.409 182.997 107.753 211.141 122.515 165.65 83.859 137.563 131.647 137.563 146.409 92.073"/>
      <polygon class="c" points="263.754 72.372 262.318 88.167 276.913 94.37 261.457 97.931 260.021 113.727 251.922 100.114 236.471 103.618 246.867 91.671 238.769 78.058 253.363 84.319 263.754 72.372"/>
      <polygon class="c" points="314.586 120.964 307.12 134.979 318.148 146.409 302.525 143.652 295.058 157.609 292.875 141.929 277.309 139.172 291.554 132.222 289.314 116.541 300.342 127.914 314.586 120.964"/>
      <polygon class="c" points="319.354 194.14 306.832 203.847 312.174 218.723 299.078 209.82 286.499 219.527 290.98 204.306 277.884 195.403 293.737 194.886 298.165 179.665 303.501 194.599 319.354 194.14"/>
      <polygon class="c" points="277.137 246.293 261.859 250.486 261.112 266.281 252.381 253.071 237.103 257.264 246.982 244.857 238.309 231.646 253.128 237.218 263.007 224.869 262.318 240.664 277.137 246.293"/>
    </g>
  </g>
</svg>