<?xml version="1.0" encoding="UTF-8"?>
<svg id="a" data-name="Layer 1" xmlns="http://www.w3.org/2000/svg" viewBox="0 0 512 512">
  <defs>
    <style>
      .b {
        fill: #fff;
      }

      .c {
        fill: #b12233;
      }

      .d {
        fill: #3c3b6d;
      }
    </style>
  </defs>
  <path d="m390.065,123.42c83.107,83.103,90.344,211.06,16.134,285.261-74.147,74.201-202.123,66.965-285.236-16.138S30.614,181.483,104.824,107.282c74.21-74.144,202.181-66.907,285.241,16.138Z"/>
  <g>
    <g>
      <path class="b" d="m492.304,354.466c-5.744,13.784-12.699,26.935-20.678,39.34H40.379c-7.984-12.405-14.934-25.557-20.678-39.34h472.603Z"/>
      <path class="c" d="m505.107,315.068c-3.159,13.611-7.524,26.763-12.803,39.398H19.701c-5.279-12.635-9.592-25.787-12.809-39.398h498.215Z"/>
      <path class="b" d="m511.259,275.67c-1.039,13.439-3.107,26.591-6.151,39.398H6.893c-3.044-12.807-5.106-25.959-6.146-39.398h510.512Z"/>
      <path class="c" d="m471.627,393.806c-9.023,14.186-19.477,27.337-31.079,39.398H71.453c-11.602-12.061-21.993-25.212-31.074-39.398h431.248Z"/>
      <path class="c" d="m392.3,472.602c-39.46,24.925-86.214,39.398-136.3,39.398s-96.783-14.473-136.3-39.398h272.6Z"/>
      <path class="b" d="m440.547,433.204c-14.359,14.99-30.557,28.256-48.248,39.398H119.7c-17.633-11.142-33.831-24.408-48.248-39.398h369.095Z"/>
      <path class="b" d="m440.547,78.796H71.453c14.417-14.99,30.614-28.256,48.305-39.398h272.485c17.691,11.142,33.888,24.408,48.305,39.398Z"/>
      <path class="c" d="m392.242,39.398H119.758c8.099-5.169,16.542-9.821,25.273-14.071.804-.345,1.608-.747,2.47-1.149,2.929-1.378,5.922-2.699,8.96-4.02,1.321-.574,2.705-1.091,4.021-1.608C190.004,6.605,222.227,0,255.943,0h.057c50.086,0,96.783,14.473,136.242,39.398Z"/>
      <path class="c" d="m471.627,118.136H40.379c2.24-3.503,4.595-7.007,7.065-10.395.172-.287.402-.574.632-.861,7.128-9.878,14.934-19.297,23.377-28.084h369.095c11.602,12.061,22.056,25.212,31.079,39.34Z"/>
      <path class="c" d="m505.107,196.932H6.893c3.217-13.554,7.53-26.706,12.809-39.398h472.603c5.279,12.692,9.644,25.844,12.803,39.398Z"/>
      <path class="b" d="m492.304,157.534H19.701c1.039-2.527,2.125-5.054,3.337-7.581,2.751-6.03,5.744-12.003,8.955-17.746,2.642-4.767,5.457-9.476,8.386-14.071h431.248c7.978,12.463,14.934,25.614,20.678,39.398Z"/>
      <path class="b" d="m511.259,236.33H.747c.115-1.666.287-3.274.465-4.882.396-4.824,1.028-9.591,1.723-14.358,1.028-6.777,2.349-13.554,3.958-20.158h498.215c3.044,12.75,5.112,25.959,6.151,39.398Z"/>
      <path class="c" d="m512,255.971c0,6.662-.23,13.209-.741,19.699H.747c-.517-6.49-.747-13.037-.747-19.699,0-6.605.23-13.152.747-19.642h510.512c.511,6.49.741,13.037.741,19.642Z"/>
    </g>
    <g>
      <path class="d" d="m255.943,0v275.67H.747c-.517-6.49-.747-13.037-.747-19.699,0-6.605.23-13.152.747-19.642.115-1.666.287-3.274.465-4.882.396-4.824,1.028-9.591,1.723-14.358,1.028-6.777,2.349-13.554,3.958-20.158,3.217-13.554,7.53-26.706,12.809-39.398,1.039-2.527,2.125-5.054,3.337-7.581,2.751-6.03,5.744-12.003,8.955-17.746,2.642-4.767,5.457-9.476,8.386-14.071,2.24-3.503,4.595-7.007,7.065-10.395.172-.287.402-.574.632-.861,7.128-9.878,14.934-19.297,23.377-28.084,14.417-14.99,30.614-28.256,48.305-39.398,8.099-5.169,16.542-9.821,25.273-14.071.804-.345,1.608-.747,2.47-1.149,2.929-1.378,5.922-2.699,8.96-4.02,1.321-.574,2.705-1.091,4.021-1.608C190.004,6.605,222.227,0,255.943,0Z"/>
      <g>
        <g>
          <polygon class="b" points="223.548 13.152 227.166 24.179 238.826 24.179 229.406 31.07 233.025 42.155 223.548 35.263 214.128 42.155 217.752 31.07 208.327 24.179 219.987 24.179 223.548 13.152"/>
          <path class="b" d="m167.316,39.398l.862,2.757-3.733-2.757-5.686-4.135-5.686,4.135-3.733,2.757.862-2.757,2.7-8.328-7.869-5.743c.804-.345,1.608-.747,2.47-1.149h7.645l1.315-4.02c1.321-.574,2.705-1.091,4.021-1.608l1.895,5.628h11.602l-9.362,6.892,2.7,8.328Z"/>
        </g>
        <g>
          <polygon class="b" points="223.548 68.228 227.166 79.313 238.826 79.313 229.406 86.147 233.025 97.231 223.548 90.397 214.128 97.231 217.752 86.147 208.327 79.313 219.987 79.313 223.548 68.228"/>
          <polygon class="b" points="158.758 68.228 162.376 79.313 173.979 79.313 164.559 86.147 168.178 97.231 158.758 90.397 149.338 97.231 152.957 86.147 143.479 79.313 155.145 79.313 158.758 68.228"/>
          <polygon class="b" points="93.968 68.228 97.529 79.313 109.195 79.313 99.769 86.147 103.388 97.231 93.968 90.397 84.497 97.231 88.109 86.147 78.69 79.313 90.35 79.313 93.968 68.228"/>
        </g>
        <g>
          <polygon class="b" points="223.548 123.362 227.166 134.447 238.826 134.447 229.406 141.281 233.025 152.365 223.548 145.531 214.128 152.365 217.752 141.281 208.327 134.447 219.987 134.447 223.548 123.362"/>
          <polygon class="b" points="158.758 123.362 162.376 134.447 173.979 134.447 164.559 141.281 168.178 152.365 158.758 145.531 149.338 152.365 152.957 141.281 143.479 134.447 155.145 134.447 158.758 123.362"/>
          <polygon class="b" points="93.968 123.362 97.529 134.447 109.195 134.447 99.769 141.281 103.388 152.365 93.968 145.531 84.497 152.365 88.109 141.281 78.69 134.447 90.35 134.447 93.968 123.362"/>
          <path class="b" d="m34.98,141.281l3.567,11.084-9.425-6.834-6.083,4.422c2.751-6.03,5.744-12.003,8.955-17.746l.747,2.24h11.602l-9.362,6.834Z"/>
        </g>
        <g>
          <polygon class="b" points="223.548 178.439 227.166 189.523 238.826 189.523 229.406 196.415 233.025 207.442 223.548 200.608 214.128 207.442 217.752 196.415 208.327 189.523 219.987 189.523 223.548 178.439"/>
          <polygon class="b" points="158.758 178.439 162.376 189.523 173.979 189.523 164.559 196.415 168.178 207.442 158.758 200.608 149.338 207.442 152.957 196.415 143.479 189.523 155.145 189.523 158.758 178.439"/>
          <polygon class="b" points="93.968 178.439 97.529 189.523 109.195 189.523 99.769 196.415 103.388 207.442 93.968 200.608 84.497 207.442 88.109 196.415 78.69 189.523 90.35 189.523 93.968 178.439"/>
          <polygon class="b" points="29.121 178.439 32.74 189.523 44.399 189.523 34.922 196.415 38.546 207.442 29.121 200.608 19.701 207.442 23.32 196.415 13.9 189.523 25.502 189.523 29.121 178.439"/>
        </g>
        <g>
          <polygon class="b" points="223.548 233.573 227.166 244.657 238.826 244.657 229.406 251.492 233.025 262.576 223.548 255.742 214.128 262.576 217.752 251.492 208.327 244.657 219.987 244.657 223.548 233.573"/>
          <polygon class="b" points="158.758 233.573 162.376 244.657 173.979 244.657 164.559 251.492 168.178 262.576 158.758 255.742 149.338 262.576 152.957 251.492 143.479 244.657 155.145 244.657 158.758 233.573"/>
          <polygon class="b" points="93.968 233.573 97.529 244.657 109.195 244.657 99.769 251.492 103.388 262.576 93.968 255.742 84.497 262.576 88.109 251.492 78.69 244.657 90.35 244.657 93.968 233.573"/>
          <polygon class="b" points="29.121 233.573 32.74 244.657 44.399 244.657 34.922 251.492 38.546 262.576 29.121 255.742 19.701 262.576 23.32 251.492 13.9 244.657 25.502 244.657 29.121 233.573"/>
        </g>
        <g>
          <polygon class="b" points="191.153 206.006 194.777 217.09 206.431 217.09 197.011 223.925 200.573 235.009 191.153 228.175 181.733 235.009 185.352 223.925 175.932 217.09 187.592 217.09 191.153 206.006"/>
          <polygon class="b" points="126.363 206.006 129.924 217.09 141.584 217.09 132.17 223.925 135.783 235.009 126.363 228.175 116.943 235.009 120.504 223.925 111.085 217.09 122.744 217.09 126.363 206.006"/>
          <polygon class="b" points="61.521 206.006 65.134 217.09 76.794 217.09 67.374 223.925 70.936 235.009 61.521 228.175 52.096 235.009 55.715 223.925 46.295 217.09 57.955 217.09 61.521 206.006"/>
          <path class="b" d="m2.527,223.925l3.619,11.084-4.934-3.561c.396-4.824,1.028-9.591,1.723-14.358h9.012l-9.42,6.834Z"/>
        </g>
        <g>
          <polygon class="b" points="191.153 150.929 194.777 162.014 206.431 162.014 197.011 168.848 200.573 179.932 191.153 173.04 181.733 179.932 185.352 168.848 175.932 162.014 187.592 162.014 191.153 150.929"/>
          <polygon class="b" points="126.363 150.929 129.924 162.014 141.584 162.014 132.17 168.848 135.783 179.932 126.363 173.04 116.943 179.932 120.504 168.848 111.085 162.014 122.744 162.014 126.363 150.929"/>
          <polygon class="b" points="61.521 150.929 65.134 162.014 76.794 162.014 67.374 168.848 70.936 179.932 61.521 173.04 52.096 179.932 55.715 168.848 46.295 162.014 57.955 162.014 61.521 150.929"/>
        </g>
        <g>
          <polygon class="b" points="191.153 95.795 194.777 106.88 206.431 106.88 197.011 113.714 200.573 124.798 191.153 117.964 181.733 124.798 185.352 113.714 175.932 106.88 187.592 106.88 191.153 95.795"/>
          <polygon class="b" points="126.363 95.795 129.924 106.88 141.584 106.88 132.17 113.714 135.783 124.798 126.363 117.964 116.943 124.798 120.504 113.714 111.085 106.88 122.744 106.88 126.363 95.795"/>
          <path class="b" d="m68.81,118.136l2.183,6.662-9.19-6.662-.282-.172-.293.172-9.133,6.662,2.183-6.662,1.436-4.422-8.271-5.973c.172-.287.402-.574.632-.861h9.822l3.624-11.084,3.613,11.084h11.66l-9.42,6.834,1.436,4.422Z"/>
        </g>
        <g>
          <polygon class="b" points="191.153 40.661 194.777 51.746 206.431 51.746 197.011 58.637 200.573 69.664 191.153 62.83 181.733 69.664 185.352 58.637 175.932 51.746 187.592 51.746 191.153 40.661"/>
          <polygon class="b" points="126.363 40.661 129.924 51.746 141.584 51.746 132.17 58.637 135.783 69.664 126.363 62.83 116.943 69.664 120.504 58.637 111.085 51.746 122.744 51.746 126.363 40.661"/>
        </g>
      </g>
    </g>
  </g>
</svg>