<?xml version="1.0" encoding="UTF-8"?>
<svg id="a" data-name="Layer 1" xmlns="http://www.w3.org/2000/svg" viewBox="0 0 512 512">
  <defs>
    <style>
      .b {
        fill: #19b43d;
      }

      .c {
        fill: #fbd023;
      }

      .d {
        fill: #07a3dc;
      }
    </style>
  </defs>
  <path d="m390.005,123.489c83.155,83.15,90.39,211.178,16.147,285.364-74.243,74.243-202.272,67.002-285.364-16.147C37.639,309.613,30.398,181.585,104.641,107.342c74.185-74.243,202.214-67.002,285.364,16.147Z"/>
  <g>
    <path class="b" d="m388.971,37.294L2.988,294.903c-1.954-12.699-2.988-25.686-2.988-38.903C0,114.812,114.812,0,256,0,304.672,0,350.24,13.619,388.971,37.294Z"/>
    <path class="d" d="m512,256c0,141.13-114.87,256-256,256-48.672,0-94.24-13.676-133.028-37.351L509.012,217.097c1.954,12.699,2.988,25.686,2.988,38.903Z"/>
    <path d="m501.829,184.458L95.677,455.398c-40.339-32.467-70.623-76.886-85.506-127.856L416.323,56.544c40.339,32.467,70.628,76.944,85.506,127.914Z"/>
    <path class="c" d="m416.323,56.544L10.171,327.542c-3.103-10.631-5.516-21.491-7.183-32.639L388.971,37.294c9.596,5.861,18.681,12.24,27.353,19.25Z"/>
    <path class="c" d="m509.012,217.097L122.972,474.649c-9.533-5.804-18.676-12.24-27.295-19.25L501.829,184.458c3.103,10.631,5.516,21.491,7.183,32.639Z"/>
  </g>
</svg>