<?xml version="1.0" encoding="UTF-8"?>
<svg id="a" data-name="Layer 1" xmlns="http://www.w3.org/2000/svg" viewBox="0 0 512 512">
  <defs>
    <style>
      .b {
        fill: #f0f0f0;
      }

      .c {
        fill: #fff;
      }

      .d {
        fill: #d42b1e;
      }

      .e {
        fill: #0739a4;
      }
    </style>
  </defs>
  <path d="m390.005,123.489c83.15,83.15,90.39,211.178,16.153,285.421-74.249,74.185-202.272,66.945-285.37-16.147C37.639,309.613,30.398,181.585,104.641,107.342c74.185-74.243,202.214-67.002,285.364,16.147Z"/>
  <g>
    <g>
      <path class="e" d="m256,0C114.818,0,0,114.87,0,256h256V0Z"/>
      <path class="b" d="m512,256C512,114.87,397.13,0,256,0h0V256h256Z"/>
      <path class="d" d="m256,256H0c0,141.188,114.818,256,256,256h0c141.13,0,256-114.812,256-256h-256Z"/>
    </g>
    <polygon class="c" points="146.704 81.196 161.99 128.316 211.523 128.316 171.471 157.393 186.756 204.513 146.704 175.436 106.595 204.513 121.938 157.393 81.828 128.316 131.362 128.316 146.704 81.196"/>
  </g>
</svg>