<?xml version="1.0" encoding="UTF-8"?>
<svg xmlns="http://www.w3.org/2000/svg" xmlns:xlink="http://www.w3.org/1999/xlink" viewBox="0 0 512 512">
  <defs>
    <style>
      .cls-1 {
        fill: #000;
      }

      .cls-1, .cls-2, .cls-3, .cls-4, .cls-5, .cls-6, .cls-7 {
        stroke-width: 0px;
      }

      .cls-2 {
        fill: #0738a6;
      }

      .cls-3 {
        fill: #fbd023;
      }

      .cls-4 {
        fill: none;
      }

      .cls-8 {
        clip-path: url(#clippath);
      }

      .cls-5 {
        fill: #cd1225;
      }

      .cls-6 {
        fill: url(#_名称未設定グラデーション_27);
      }

      .cls-7 {
        fill: #f0f0f0;
      }
    </style>
    <clipPath id="clippath">
      <path class="cls-4" d="M745.81,0h932.38c18.66,0,33.81,15.15,33.81,33.81v522.38c0,18.66-15.15,33.81-33.81,33.81h-932.38c-18.66,0-33.81-15.15-33.81-33.81V33.81c0-18.66,15.15-33.81,33.81-33.81Z"/>
    </clipPath>
    <radialGradient id="_名称未設定グラデーション_27" data-name="名称未設定グラデーション 27" cx="717.67" cy="694.93" fx="717.67" fy="694.93" r="433.87" gradientUnits="userSpaceOnUse">
      <stop offset=".41" stop-color="#c0dcff" stop-opacity="0"/>
      <stop offset=".85" stop-color="#daebff"/>
    </radialGradient>
  </defs>
  <g id="_背景" data-name="背景">
    <g class="cls-8">
      <path class="cls-6" d="M972.07,441.74c-7.48,0-14.21,3.14-18.99,8.15-5.5-13.1-18.44-22.29-33.54-22.29-5.17,0-10.09,1.1-14.54,3.05-6.36-19.36-24.57-33.35-46.06-33.35-1.35,0-2.69.07-4.02.18-7.11-27.97-32.46-48.66-62.65-48.66-35.7,0-64.65,28.94-64.65,64.65,0,1.26.04,2.5.12,3.74-3.89-1.11-7.99-1.72-12.24-1.72-7.6,0-14.76,1.91-21.02,5.28-9.59-17.59-28.25-29.52-49.69-29.52-.05,0-.11,0-.16,0-11.19-17.03-30.46-28.29-52.36-28.29-28.3,0-52.21,18.78-59.97,44.55-4.69-1.37-9.65-2.12-14.78-2.12-29.01,0-52.53,23.52-52.53,52.53s23.52,52.53,52.53,52.53c3.79,0,7.49-.41,11.06-1.18,4.1,19.14,21.1,33.5,41.47,33.5,7.05,0,13.68-1.75,19.53-4.79,10.56,19.68,31.32,33.07,55.22,33.07s46.07-14.32,56.26-35.11c7.77,5.56,17.29,8.84,27.58,8.84,19.56,0,36.36-11.84,43.63-28.73,9.15,10.18,22.59,16.61,37.59,16.61,14.11,0,26.85-5.7,35.93-14.85,6.88,12.47,20.14,20.92,35.39,20.92,16.09,0,29.94-9.43,36.44-23.04,5.34,3.07,11.51,4.86,18.11,4.86,16.6,0,30.57-11.14,34.93-26.34.48.03.95.07,1.43.07,14.5,0,26.26-11.76,26.26-26.26s-11.76-26.26-26.26-26.26Z"/>
    </g>
  </g>
  <g id="_イメージ" data-name="イメージ">
    <g>
      <path class="cls-1" d="M390.06,123.43c83.11,83.11,90.35,211.08,16.14,285.24-74.21,74.21-202.12,66.97-285.24-16.14C37.85,309.47,30.61,181.5,104.82,107.29c74.22-74.21,202.18-66.97,285.24,16.14Z"/>
      <g>
        <g>
          <path class="cls-2" d="M512,256h-165.77S141,138,60.48,90.92C107.47,35.38,177.65,0,256.01,0,397.12,0,512,114.82,512,256Z"/>
          <path class="cls-5" d="M512,256c0,141.12-114.88,256-255.99,256-78.35,0-148.54-35.38-195.52-90.98,43.52-25.02,285.75-165.02,285.75-165.02h165.77Z"/>
        </g>
        <g>
          <path class="cls-7" d="M346.23,256L60.48,421.02C22.75,376.45,0,318.84,0,256s22.75-120.45,60.48-165.08l285.75,165.08Z"/>
          <g>
            <path class="cls-3" d="M222.4,260.6l4.37-4.6-4.37-4.65-34.81,2.35c-.06-.8-.11-1.55-.23-2.35l31.31-3.96-3.91-4.08-27.74,6.03c-.86-4.65-2.7-8.96-5.28-12.75l23.89-15.34-.17-5.69-24.93,19.3c-.46-.57-.98-1.21-1.49-1.78l26.24-22.98-.17-6.38-6.32-.17-22.98,26.25c-.57-.52-1.21-.98-1.78-1.44l19.3-24.93-5.68-.17-15.34,23.84c-3.79-2.53-8.1-4.37-12.75-5.23l6.03-27.74-4.08-3.91-3.96,31.3c-.8-.11-1.55-.17-2.35-.23l2.3-34.81-4.6-4.37-4.6,4.37,2.3,34.81c-.75.06-1.55.11-2.3.23l-3.96-31.3-4.14,3.91,6.03,27.74c-4.65.86-8.96,2.7-12.75,5.23l-15.33-23.84-5.63.17,19.3,24.93c-.63.46-1.21.92-1.84,1.44l-22.98-26.25-6.32.17-.17,6.38,26.25,22.98c-.52.57-1.04,1.21-1.5,1.78l-24.92-19.3-.12,5.69,23.84,15.34c-2.58,3.79-4.37,8.1-5.28,12.75l-27.68-6.03-3.91,4.08,31.25,3.96c-.11.8-.17,1.55-.23,2.35l-34.81-2.35-4.37,4.65,4.37,4.6,34.81-2.3c.06.75.11,1.55.23,2.3l-31.25,3.96,3.91,4.14,27.68-6.03c.92,4.65,2.7,8.96,5.28,12.75l-23.84,15.34.12,5.63,24.92-19.3c.46.63.98,1.21,1.5,1.78l-26.25,22.98.17,6.38,6.32.17,22.98-26.25c.63.52,1.21,1.03,1.84,1.49l-19.3,24.93,5.63.11,15.33-23.84c3.79,2.53,8.1,4.37,12.75,5.28l-6.03,27.68,4.14,3.91,3.96-31.25c.75.06,1.55.17,2.3.23l-2.3,34.81,4.6,4.37,4.6-4.37-2.3-34.81c.8-.06,1.55-.17,2.35-.23l3.96,31.25,4.08-3.91-6.03-27.68c4.65-.92,8.96-2.76,12.75-5.28l15.34,23.84,5.68-.11-19.3-24.93c.57-.46,1.21-.98,1.78-1.49l22.98,26.25,6.32-.17.17-6.38-26.24-22.98c.51-.57,1.03-1.15,1.49-1.78l24.93,19.3.17-5.63-23.89-15.34c2.58-3.79,4.42-8.1,5.28-12.75l27.74,6.03,3.91-4.14-31.31-3.96c.11-.75.17-1.55.23-2.3l34.81,2.3Z"/>
            <g>
              <polygon class="cls-3" points="297.99 237.68 297.99 251.69 311.26 256 297.99 260.31 297.99 274.27 289.77 262.95 276.51 267.26 284.72 255.94 276.51 244.68 289.77 248.99 297.99 237.68"/>
              <g>
                <polygon class="cls-3" points="89.09 375.59 78.69 384.83 84.32 397.64 72.26 390.58 61.8 399.88 64.79 386.27 52.73 379.2 66.63 377.83 69.61 364.16 75.19 376.96 89.09 375.59"/>
                <polygon class="cls-3" points="61.87 112.06 72.26 121.42 84.32 114.36 78.69 127.17 89.09 136.47 75.19 135.04 69.56 147.84 66.63 134.17 52.73 132.74 64.79 125.73 61.87 112.06"/>
              </g>
            </g>
          </g>
        </g>
      </g>
    </g>
  </g>
</svg>