<svg xmlns="http://www.w3.org/2000/svg" width="57.011" height="57.005" viewBox="0 0 57.011 57.005">
  <g id="グループ_48667" data-name="グループ 48667" transform="translate(-5442.369 6411.142)">
    <path id="パス_397" data-name="パス 397" d="M329.791,541.979a1.854,1.854,0,0,1-1.82-1.489c-3.158-15.781-5.329-17.952-21.11-21.11a1.855,1.855,0,0,1,0-3.638c15.781-3.156,17.952-5.325,21.11-21.11a1.855,1.855,0,0,1,3.638,0c3.156,15.783,5.327,17.954,21.11,21.11a1.855,1.855,0,0,1,0,3.638c-15.783,3.158-17.954,5.329-21.11,21.11a1.854,1.854,0,0,1-1.82,1.489" transform="translate(5137 -6904.282)" fill="#fff"/>
    <path id="パス_398" data-name="パス 398" d="M352.225,550.145a1.857,1.857,0,0,1-1.767-1.283c-1.511-4.667-2.441-5.6-7.106-7.108a1.859,1.859,0,0,1,0-3.534c4.663-1.509,5.593-2.438,7.106-7.106a1.859,1.859,0,0,1,3.534,0c1.509,4.666,2.441,5.6,7.106,7.106a1.859,1.859,0,0,1,0,3.534c-4.667,1.512-5.6,2.451-7.106,7.108a1.859,1.859,0,0,1-1.767,1.283" transform="translate(5137 -6904.282)" fill="#fff"/>
  </g>
</svg>
