<svg xmlns="http://www.w3.org/2000/svg" width="38.697" height="64.693" viewBox="0 0 38.697 64.693">
  <g id="グループ_48664" data-name="グループ 48664" transform="translate(-5453.932 6664.45)">
    <path id="パス_401" data-name="パス 401" d="M332.335,304.526a15.374,15.374,0,0,1-9.637-27.373V249.6c0-.088,0-.2,0-.322a9.618,9.618,0,0,1,19.232.35v27.528a15.372,15.372,0,0,1-9.6,27.373m-.021-61.693a6.626,6.626,0,0,0-6.616,6.5v29.332l-.622.449a12.375,12.375,0,1,0,14.477,0l-.623-.449V249.6a6.617,6.617,0,0,0-6.5-6.763h-.12" transform="translate(5137 -6904.282)" fill="#fff"/>
    <path id="パス_402" data-name="パス 402" d="M340.431,289.111a8.118,8.118,0,1,1-8.118-8.118,8.117,8.117,0,0,1,8.118,8.118" transform="translate(5137 -6904.282)" fill="#fff"/>
    <path id="パス_403" data-name="パス 403" d="M332.313,286.535a2,2,0,0,1-2-2V250.818a2,2,0,0,1,4,0v33.717a2,2,0,0,1-2,2" transform="translate(5137 -6904.282)" fill="#fff"/>
    <path id="パス_404" data-name="パス 404" d="M354.129,249.85h-6.555a1.5,1.5,0,0,1,0-3h6.555a1.5,1.5,0,0,1,0,3" transform="translate(5137 -6904.282)" fill="#fff"/>
    <path id="パス_405" data-name="パス 405" d="M354.129,258.06h-6.555a1.5,1.5,0,0,1,0-3h6.555a1.5,1.5,0,0,1,0,3" transform="translate(5137 -6904.282)" fill="#fff"/>
    <path id="パス_406" data-name="パス 406" d="M354.129,266.269h-6.555a1.5,1.5,0,0,1,0-3h6.555a1.5,1.5,0,0,1,0,3" transform="translate(5137 -6904.282)" fill="#fff"/>
    <path id="パス_407" data-name="パス 407" d="M354.129,274.479h-6.555a1.5,1.5,0,0,1,0-3h6.555a1.5,1.5,0,0,1,0,3" transform="translate(5137 -6904.282)" fill="#fff"/>
  </g>
</svg>
