<svg xmlns="http://www.w3.org/2000/svg" width="57.935" height="33.214" viewBox="0 0 57.935 33.214">
  <g id="グループ_48666" data-name="グループ 48666" transform="translate(-5677.557 6397.389)">
    <path id="パス_393" data-name="パス 393" d="M597.742,507.643c-15.872,48.27-31.627,10.211-56.435,31.714,20.811-38.674,30.24,1.678,56.435-31.714" transform="translate(5137 -6904.282)" fill="#fff"/>
    <path id="パス_394" data-name="パス 394" d="M597.742,506.893a.75.75,0,0,1,.712.984c-3.4,10.339-7.013,17.37-11.046,21.494a16.378,16.378,0,0,1-5.889,4,16.839,16.839,0,0,1-6.12,1.041,50.82,50.82,0,0,1-7.417-.745,56.725,56.725,0,0,0-8.419-.819,24.555,24.555,0,0,0-8.449,1.415,29.382,29.382,0,0,0-9.317,5.665.75.75,0,0,1-1.152-.922c3.906-7.258,7.66-12.206,11.476-15.126a16.143,16.143,0,0,1,10.357-3.522,44,44,0,0,1,5.847.519,46.639,46.639,0,0,0,6.193.541,20.038,20.038,0,0,0,10.1-2.625c4.086-2.267,8.186-6.064,12.535-11.607A.75.75,0,0,1,597.742,506.893ZM575.4,532.907a15.372,15.372,0,0,0,5.583-.941,14.914,14.914,0,0,0,5.354-3.644c3.35-3.425,6.421-9.011,9.344-17.014a39.873,39.873,0,0,1-10.335,8.791,21.482,21.482,0,0,1-10.825,2.813,47.792,47.792,0,0,1-6.391-.554,42.905,42.905,0,0,0-5.649-.505,14.637,14.637,0,0,0-9.445,3.214c-3.049,2.333-6.081,6.068-9.218,11.366a28.451,28.451,0,0,1,6.791-3.585,26.029,26.029,0,0,1,8.957-1.5,57.88,57.88,0,0,1,8.64.835A49.747,49.747,0,0,0,575.4,532.907Z" transform="translate(5137 -6904.282)" fill="#fff"/>
  </g>
</svg>
