<svg xmlns="http://www.w3.org/2000/svg" width="27.612" height="46.29" viewBox="0 0 27.612 46.29">
  <g id="グループ_48665" data-name="グループ 48665" transform="translate(-5693.017 6654.761)">
    <path id="パス_389" data-name="パス 389" d="M582.879,282.006a13.056,13.056,0,1,1-26.112,0c0-11.189,13.056-31.106,13.056-31.106s13.056,20.35,13.056,31.106" transform="translate(5137 -6904.282)" fill="#fff"/>
    <path id="パス_390" data-name="パス 390" d="M569.823,295.812a13.805,13.805,0,0,1-13.806-13.806,30.605,30.605,0,0,1,2.083-9.832,86.824,86.824,0,0,1,4.527-10.259c3.245-6.34,6.536-11.376,6.568-11.427l.634-.967.624.973c.033.051,3.322,5.193,6.566,11.585a90.7,90.7,0,0,1,4.525,10.275,30.074,30.074,0,0,1,2.084,9.651,13.806,13.806,0,0,1-13.806,13.806Zm-.006-43.507c-1.106,1.761-3.5,5.683-5.861,10.306-4.212,8.234-6.439,14.94-6.439,19.394a12.306,12.306,0,1,0,24.612,0c0-5.405-3.5-13.444-6.441-19.235C573.316,258.094,570.919,254.094,569.817,252.305Z" transform="translate(5137 -6904.282)" fill="#fff"/>
  </g>
</svg>
